<svg xmlns="http://www.w3.org/2000/svg" width="3555" height="433" viewBox="0 0 3555 433" version="1.1"><path d="" stroke="none" fill="#080404" fill-rule="evenodd"/><path d="M 127 29.579 C 116.590 32.318, 109.069 36.922, 99.367 46.491 C 92.576 53.190, 89.336 57.295, 86.732 62.500 C 80.485 74.985, 80.664 73.229, 80.058 128 C 79.365 190.579, 80.459 186.495, 63.542 189.633 C 47.662 192.579, 41.031 199.833, 41.010 214.282 C 40.989 228.904, 47.547 235.938, 64.362 239.331 C 73.250 241.124, 76.562 242.902, 78.273 246.802 C 79.112 248.713, 79.620 264.971, 80.015 302.500 C 80.631 361.161, 80.371 358.772, 87.548 371.704 C 92.807 381.182, 106.435 394.592, 115.035 398.752 C 132.451 407.177, 150.667 407.151, 159.882 398.688 C 163.986 394.919, 166.979 387.206, 166.990 380.372 C 167.012 366.738, 159.254 358.218, 144.680 355.871 C 136.590 354.568, 132.284 352.410, 130.206 348.615 C 128.679 345.828, 128.441 339.875, 127.940 292 C 127.309 231.654, 127.519 233.405, 119.446 221.365 C 116.972 217.676, 115.072 214.397, 115.224 214.079 C 115.376 213.760, 117.188 211.007, 119.252 207.961 C 121.315 204.914, 124.010 199.739, 125.240 196.461 C 127.420 190.650, 127.489 189.213, 127.988 139.500 C 128.617 76.825, 127.697 80.492, 143.549 77.459 C 155.711 75.132, 161.964 70.809, 165.537 62.257 C 167.816 56.804, 167.401 47.392, 164.623 41.500 C 161.813 35.542, 159.048 32.826, 153 30.084 C 147.538 27.608, 135.388 27.372, 127 29.579 M 1107.500 30.377 C 1098.556 34.595, 1094.059 42.063, 1094.022 52.761 C 1093.972 66.884, 1102.144 75.235, 1118.277 77.550 C 1120.904 77.927, 1124.504 79.211, 1126.277 80.405 C 1132.582 84.649, 1132.449 83.483, 1133.021 139.500 C 1133.609 197.069, 1133.384 195.335, 1141.932 208.136 C 1144.169 211.487, 1146 214.342, 1146 214.482 C 1146 214.621, 1143.988 217.736, 1141.528 221.404 C 1133.483 233.401, 1133.685 231.734, 1133.057 291.500 C 1132.374 356.473, 1133.342 352.500, 1117.451 355.541 C 1105.289 357.868, 1099.036 362.191, 1095.463 370.743 C 1092.022 378.979, 1094.844 392.926, 1101.118 398.688 C 1113.061 409.657, 1140.178 405.991, 1157.328 391.088 C 1167.722 382.057, 1174.647 372.131, 1178.668 360.500 C 1180.191 356.095, 1180.462 349.195, 1180.948 302.500 C 1181.617 238.263, 1180.652 242.275, 1196.145 239.356 C 1213.320 236.120, 1220.012 229.084, 1219.990 214.282 C 1219.970 200.209, 1213.087 192.357, 1198.677 189.965 C 1188.887 188.340, 1185.453 186.745, 1183.316 182.829 C 1181.649 179.773, 1181.458 175.321, 1180.993 128.500 C 1180.427 71.618, 1180.649 73.498, 1172.947 60.373 C 1167.735 51.492, 1153.880 38.077, 1145.965 34.248 C 1132.070 27.526, 1116.804 25.990, 1107.500 30.377 M 230 217 L 230 405 273.684 405 C 322.101 405, 325.322 404.656, 332.526 398.718 C 337.649 394.495, 339.956 388.994, 339.956 381 C 339.956 373.006, 337.649 367.505, 332.526 363.282 C 326.283 358.136, 319.983 357, 297.684 357 L 278 357 278 217 L 278 77 297.684 77 C 319.983 77, 326.283 75.864, 332.526 70.718 C 337.649 66.495, 339.956 60.994, 339.956 53 C 339.956 45.006, 337.649 39.505, 332.526 35.282 C 325.322 29.344, 322.101 29, 273.684 29 L 230 29 230 217 M 938.227 30.811 C 927.257 34.324, 922.044 41.472, 922.044 53 C 922.044 60.994, 924.351 66.495, 929.474 70.718 C 935.717 75.864, 942.017 77, 964.316 77 L 984 77 984 217 L 984 357 964.316 357 C 942.017 357, 935.717 358.136, 929.474 363.282 C 924.351 367.505, 922.044 373.006, 922.044 381 C 922.044 388.994, 924.351 394.495, 929.474 398.718 C 936.678 404.656, 939.899 405, 988.316 405 L 1032 405 1032 217 L 1032 29 987.750 29.061 C 949.077 29.114, 942.835 29.335, 938.227 30.811 M 363 98.684 C 363 155.880, 363.215 158.165, 369.282 165.526 C 373.505 170.649, 379.006 172.956, 387 172.956 C 394.994 172.956, 400.495 170.649, 404.718 165.526 C 410.238 158.829, 411 153.632, 411 122.684 L 411 95 436.500 95 L 462 95 462 188.500 L 462 282 440.816 282 C 416.902 282, 410.820 283.051, 404.474 288.282 C 399.351 292.505, 397.044 298.006, 397.044 306 C 397.044 313.994, 399.351 319.495, 404.474 323.718 C 412.038 329.953, 412.647 330, 486 330 C 559.353 330, 559.962 329.953, 567.526 323.718 C 572.649 319.495, 574.956 313.994, 574.956 306 C 574.956 298.006, 572.649 292.505, 567.526 288.282 C 561.180 283.051, 555.098 282, 531.184 282 L 510 282 510 188.500 L 510 95 535.500 95 L 561 95 561 122.684 C 561 153.632, 561.762 158.829, 567.282 165.526 C 571.505 170.649, 577.006 172.956, 585 172.956 C 592.994 172.956, 598.495 170.649, 602.718 165.526 C 608.785 158.165, 609 155.880, 609 98.684 L 609 47 486 47 L 363 47 363 98.684 M 630.227 48.811 C 619.257 52.324, 614.044 59.472, 614.044 71 C 614.044 87.054, 624.398 95, 645.316 95 L 654 95 654 188.500 L 654 282 648.816 282 C 641.507 282, 632.853 284.673, 628.474 288.282 C 623.351 292.505, 621.044 298.006, 621.044 306 C 621.044 317.735, 626.707 325.251, 637.919 328.397 C 646.414 330.781, 726.586 330.781, 735.081 328.397 C 746.293 325.251, 751.956 317.735, 751.956 306 C 751.956 298.006, 749.649 292.505, 744.526 288.282 C 738.821 283.580, 731.569 282, 715.684 282 L 702 282 702.059 210.250 C 702.099 161.107, 702.439 138.973, 703.139 140 C 703.700 140.825, 730.812 183.800, 763.387 235.500 L 822.615 329.500 846.808 329.768 L 871 330.036 871 212.518 L 871 95 876.184 95 C 883.493 95, 892.147 92.327, 896.526 88.718 C 901.649 84.495, 903.956 78.994, 903.956 71 C 903.956 59.265, 898.293 51.749, 887.081 48.603 C 878.586 46.219, 798.414 46.219, 789.919 48.603 C 778.707 51.749, 773.044 59.265, 773.044 71 C 773.044 78.994, 775.351 84.495, 780.474 88.718 C 786.179 93.420, 793.431 95, 809.316 95 L 823 95 823 166 C 823 205.050, 822.829 237, 822.619 237 C 822.410 237, 795.298 194.251, 762.369 142.002 L 702.500 47.004 669 47.063 C 640.417 47.114, 634.726 47.370, 630.227 48.811 M 2029.520 79.965 C 1997.822 86.878, 1982.963 107.827, 1976.299 155 C 1973.717 173.282, 1973.750 236.434, 1976.353 256.462 C 1982.148 301.060, 1995.832 321.222, 2025.658 329.108 C 2031.430 330.635, 2037.896 331.326, 2050.154 331.726 C 2075.775 332.564, 2090.079 330.158, 2115.603 320.716 C 2128.761 315.849, 2128.790 315.855, 2128.930 323.168 C 2129.052 329.574, 2129.531 330, 2136.607 330 L 2143 330 2143 266.607 C 2143 207.183, 2142.890 203.167, 2141.250 202.470 C 2136.025 200.249, 2083.016 201.029, 2061.250 203.647 L 2056 204.279 2056 210.139 L 2056 216 2091.500 216 L 2127 216 2127 258.427 L 2127 300.855 2119.045 303.922 C 2108.441 308.012, 2086.307 314.424, 2077 316.103 C 2065.749 318.132, 2045.229 317.667, 2035.846 315.169 C 2010.113 308.318, 1998.522 292.140, 1992.736 255 C 1990.919 243.332, 1990.624 236.887, 1990.567 207.500 C 1990.498 172.647, 1991.111 164, 1994.958 145.500 C 2001.017 116.361, 2013.983 100.563, 2037 94.276 C 2042.381 92.806, 2047.115 92.529, 2064.500 92.669 C 2082.861 92.817, 2093.321 93.479, 2126.802 96.613 L 2134.103 97.297 2133.802 90.898 L 2133.500 84.500 2126.489 83.339 C 2109.878 80.588, 2086.792 78.780, 2063.500 78.407 C 2041.436 78.054, 2037.445 78.237, 2029.520 79.965 M 2263.500 78.666 C 2246.734 80.715, 2235.213 84.376, 2225.772 90.652 C 2209.171 101.688, 2199.151 122.618, 2194.485 156 C 2192.328 171.437, 2191.388 221.725, 2192.896 241 C 2197.138 295.193, 2210.700 319.259, 2241.865 327.895 C 2254.283 331.337, 2266.307 332.269, 2291.199 331.721 C 2317.806 331.136, 2327.869 329.502, 2339.510 323.877 C 2349.289 319.152, 2359.415 308.972, 2364.254 299 C 2373.646 279.643, 2376.989 259.127, 2377.721 216.348 C 2378.443 174.105, 2376.483 150.473, 2370.513 129.470 C 2361.409 97.436, 2344.552 83.380, 2310 79.010 C 2302.924 78.115, 2270 77.872, 2263.500 78.666 M 3407.500 79.503 C 3382.418 84.243, 3369.052 96.100, 3364.483 117.665 C 3362.437 127.322, 3362.454 168.058, 3364.508 176.769 C 3367.658 190.131, 3374.324 198.591, 3386.375 204.520 C 3397.807 210.145, 3403.977 211.038, 3437.500 211.913 C 3470.323 212.771, 3474.067 213.369, 3481.833 218.994 C 3492.203 226.506, 3495.983 236.530, 3496.731 258.500 C 3497.348 276.608, 3496.079 286.202, 3491.943 294.697 C 3486.704 305.460, 3477.205 311.995, 3461.500 315.642 C 3454.733 317.214, 3449.260 317.500, 3426 317.500 C 3410.875 317.500, 3390.287 317.134, 3380.250 316.686 L 3362 315.872 3362 321.890 C 3362 327.897, 3362.007 327.911, 3365.250 328.484 C 3373.787 329.992, 3394.302 331.106, 3423 331.620 C 3451.864 332.137, 3455.337 332.016, 3464.500 330.184 C 3476.883 327.707, 3484.084 325.042, 3491.646 320.137 C 3501.717 313.604, 3506.923 306.575, 3510.658 294.470 C 3513.300 285.907, 3513.364 242.723, 3510.749 233.207 C 3505.861 215.422, 3495.269 204.183, 3478.500 198.989 C 3475.969 198.205, 3463.484 197.481, 3444.500 197.017 C 3412.408 196.232, 3407.260 195.562, 3397.319 190.877 C 3384.651 184.906, 3379.617 175.284, 3378.435 154.783 C 3377.248 134.174, 3380.411 117.861, 3387.363 108.747 C 3398.188 94.553, 3414.781 90.615, 3454.257 92.869 C 3466.490 93.568, 3482.238 94.398, 3489.250 94.713 L 3502 95.287 3502 89.259 L 3502 83.230 3494.250 82.119 C 3468.156 78.377, 3420.986 76.955, 3407.500 79.503 M 1250 87 L 1250 94 1291 94 L 1332 94 1332 212 L 1332 330 1340 330 L 1348 330 1348 212 L 1348 94 1389 94 L 1430 94 1430 87 L 1430 80 1340 80 L 1250 80 1250 87 M 1461 205 L 1461 330 1469 330 L 1477 330 1477 273 L 1477 216 1546 216 L 1615 216 1615 273 L 1615 330 1623 330 L 1631 330 1631 205 L 1631 80 1623 80 L 1615 80 1615 141 L 1615 202 1546 202 L 1477 202 1477 141 L 1477 80 1469 80 L 1461 80 1461 205 M 1686 205 L 1686 330 1694 330 L 1702 330 1702 205 L 1702 80 1694 80 L 1686 80 1686 205 M 1829.104 82.250 C 1828.638 83.487, 1808.624 138.117, 1784.628 203.649 C 1756.925 279.306, 1741 324.127, 1741 326.440 L 1741 330.081 1749.132 329.790 L 1757.263 329.500 1772.382 288 L 1787.500 246.500 1839.126 246.241 L 1890.751 245.982 1896.374 261.241 C 1899.467 269.633, 1906.394 288.425, 1911.768 303 L 1921.538 329.500 1929.769 329.790 L 1938 330.081 1938 326.749 C 1938 324.309, 1858.961 105.512, 1849.857 82.750 C 1848.767 80.023, 1848.679 80, 1839.354 80 C 1830.520 80, 1829.899 80.136, 1829.104 82.250 M 2530 205 L 2530 330 2537.496 330 L 2544.991 330 2545.246 221.669 L 2545.500 113.338 2615.082 221.419 L 2684.665 329.500 2692.332 329.792 L 2700 330.084 2700 205.042 L 2700 80 2692.004 80 L 2684.009 80 2683.754 187.866 L 2683.500 295.731 2614.062 187.866 L 2544.623 80 2537.312 80 L 2530 80 2530 205 M 2778.500 81.360 C 2770.358 83.506, 2766.325 85.616, 2761.197 90.413 C 2755.553 95.692, 2751.662 103.046, 2750.041 111.500 C 2749.210 115.831, 2748.975 143.366, 2749.195 210.500 L 2749.500 303.500 2751.783 309.147 C 2754.795 316.595, 2760.842 323.307, 2767.286 326.355 C 2777.178 331.034, 2781.454 331.288, 2838.500 330.578 C 2867.650 330.215, 2892.983 329.658, 2894.796 329.339 L 2898.093 328.760 2897.796 323.130 L 2897.500 317.500 2842.500 316.957 C 2800.905 316.546, 2786.530 316.092, 2783.519 315.096 C 2776.436 312.752, 2771.384 308.482, 2768.325 302.254 L 2765.500 296.500 2765.209 254.750 L 2764.917 213 2798.796 213 C 2817.430 213, 2844.224 212.703, 2858.338 212.340 L 2884 211.679 2884 205.840 L 2884 200 2867.250 199.999 C 2858.037 199.998, 2831.244 199.699, 2807.709 199.335 L 2764.918 198.673 2765.209 157.587 C 2765.498 116.807, 2765.518 116.461, 2767.870 111.258 C 2770.605 105.206, 2776.261 99.697, 2782.878 96.637 C 2787.376 94.557, 2788.976 94.487, 2842.500 94 L 2897.500 93.500 2897.500 88 L 2897.500 82.500 2887.730 81.863 C 2882.357 81.512, 2856.707 80.959, 2830.730 80.634 C 2793.331 80.165, 2782.459 80.317, 2778.500 81.360 M 2933.005 83.750 C 2933.009 86.197, 2948.413 129.554, 2977.327 208.500 L 3021.643 329.500 3031.394 329.500 L 3041.145 329.500 3085.573 208.173 C 3111.858 136.391, 3130 85.448, 3130 83.423 L 3130 80 3122.109 80 L 3114.217 80 3112.762 83.750 C 3111.962 85.813, 3093.359 136.646, 3071.423 196.713 C 3049.486 256.780, 3031.256 305.380, 3030.911 304.713 C 3030.567 304.046, 3011.913 253.213, 2989.459 191.750 L 2948.633 80 2940.817 80 L 2933 80 2933.005 83.750 M 3201.500 81.360 C 3193.358 83.506, 3189.325 85.616, 3184.197 90.413 C 3178.553 95.692, 3174.662 103.046, 3173.041 111.500 C 3172.210 115.831, 3171.975 143.366, 3172.195 210.500 L 3172.500 303.500 3174.783 309.147 C 3177.795 316.595, 3183.842 323.307, 3190.286 326.355 C 3200.178 331.034, 3204.454 331.288, 3261.500 330.578 C 3290.650 330.215, 3315.983 329.658, 3317.796 329.339 L 3321.093 328.760 3320.796 323.130 L 3320.500 317.500 3265.500 316.957 C 3223.905 316.546, 3209.530 316.092, 3206.519 315.096 C 3199.436 312.752, 3194.384 308.482, 3191.325 302.254 L 3188.500 296.500 3188.209 254.750 L 3187.917 213 3221.796 213 C 3240.430 213, 3267.224 212.703, 3281.338 212.340 L 3307 211.679 3307 205.840 L 3307 200 3290.250 199.999 C 3281.037 199.998, 3254.244 199.699, 3230.709 199.335 L 3187.918 198.673 3188.209 157.587 C 3188.498 116.807, 3188.518 116.461, 3190.870 111.258 C 3193.605 105.206, 3199.261 99.697, 3205.878 96.637 C 3210.376 94.557, 3211.976 94.487, 3265.500 94 L 3320.500 93.500 3320.500 88 L 3320.500 82.500 3310.730 81.863 C 3305.357 81.512, 3279.707 80.959, 3253.730 80.634 C 3216.331 80.165, 3205.459 80.317, 3201.500 81.360 M 2272.500 92.587 C 2257.200 94.793, 2250.188 96.541, 2243.783 99.745 C 2218.410 112.439, 2208.014 143.762, 2208.019 207.500 C 2208.024 270.286, 2217.216 298.749, 2241.253 310.409 C 2251.046 315.160, 2260.573 316.994, 2279 317.676 C 2311.418 318.875, 2331.984 312.764, 2343.263 298.578 C 2351.434 288.302, 2356.167 275.107, 2359.724 252.691 C 2362.267 236.664, 2362.267 175.922, 2359.723 159 C 2353.544 117.887, 2341.123 100.637, 2313.547 94.868 C 2304.831 93.045, 2279.203 91.620, 2272.500 92.587 M 1816.244 167.573 C 1803.501 202.132, 1793.212 230.546, 1793.381 230.714 C 1793.549 230.883, 1814.186 230.903, 1839.239 230.760 L 1884.791 230.500 1862.928 170.097 C 1850.903 136.876, 1840.693 108.580, 1840.239 107.216 C 1839.562 105.187, 1835.218 116.114, 1816.244 167.573" stroke="none" fill="#040404" fill-rule="evenodd"/></svg>